<?xml version="1.0" encoding="utf-8"?>
<!-- Generator: Adobe Illustrator 25.3.1, SVG Export Plug-In . SVG Version: 6.00 Build 0)  -->
<svg version="1.1" id="Capa_1" xmlns="http://www.w3.org/2000/svg" xmlns:xlink="http://www.w3.org/1999/xlink" x="0px" y="0px"
	 viewBox="0 0 678 236" style="enable-background:new 0 0 678 236;" xml:space="preserve">
<style type="text/css">
	.st0{fill:#FFFFFF;}
</style>
<g>
	<g>
		<g>
			<path class="st0" d="M238.2,17.6c29.5,0,44.5,23.4,44.5,48.6s-15,48.6-44.5,48.6c-29.5,0-44.5-23.4-44.5-48.6
				S208.7,17.6,238.2,17.6z M238.2,104.5c22.6,0,32.1-19.5,32.1-38.2S260.9,28,238.2,28c-22.6,0-32.1,19.5-32.1,38.2
				S215.6,104.5,238.2,104.5z"/>
			<path class="st0" d="M297.9,19.8H309v55l30.7-29.4h14.8l-26.7,24.5l28.6,42.8h-14l-23-35.1L309,87.2v25.5h-11.1V19.8z"/>
			<path class="st0" d="M377.8,33.3h-11.1V19.8h11.1V33.3z M366.7,45.4h11.1v67.2h-11.1V45.4z"/>
			<path class="st0" d="M455.8,112.4c-2,1.2-4.4,1.8-7.9,1.8c-5.7,0-9.4-3.1-9.4-10.4c-6.1,7.2-14.3,10.4-23.7,10.4
				c-12.2,0-22.2-5.5-22.2-18.9c0-15.2,11.3-18.5,22.8-20.7c12.2-2.3,22.6-1.6,22.6-9.9c0-9.6-7.9-11.2-15-11.2
				c-9.4,0-16.3,2.9-16.8,12.7h-11.1c0.6-16.6,13.5-22.5,28.5-22.5c12.1,0,25.2,2.7,25.2,18.5v34.6c0,5.2,0,7.5,3.5,7.5
				c0.9,0,2-0.1,3.4-0.7V112.4z M437.9,77.9c-4.3,3.1-12.6,3.3-20,4.6c-7.3,1.3-13.5,3.9-13.5,12.1c0,7.3,6.2,9.9,13,9.9
				c14.6,0,20.6-9.1,20.6-15.2V77.9z"/>
			<path class="st0" d="M467.4,45.4h10.4v10.7h0.3c4.7-8.3,12.2-12.2,21.9-12.2c17.7,0,23.2,10.1,23.2,24.6v44.2H512V67.2
				c0-8.2-5.2-13.5-13.7-13.5c-13.4,0-19.9,9-19.9,21.1v38h-11.1V45.4z"/>
			<path class="st0" d="M596.7,112.7h-10.4V102H586c-4.7,8.3-12.2,12.2-21.9,12.2c-17.7,0-23.2-10.1-23.2-24.6V45.4h11.1V91
				c0,8.2,5.2,13.5,13.7,13.5c13.4,0,19.9-9,19.9-21.1v-38h11.1V112.7z"/>
			<path class="st0" d="M621.4,91.5c0.4,9.9,9,13,18.1,13c6.9,0,16.3-1.6,16.3-10c0-8.6-10.9-10-22-12.5c-10.9-2.5-22-6.1-22-19
				c0-13.5,13.4-19.1,25.1-19.1c14.8,0,26.7,4.7,27.6,21.1h-11.1c-0.8-8.6-8.3-11.3-15.6-11.3c-6.6,0-14.3,1.8-14.3,8.6
				c0,7.9,11.7,9.2,22,11.7c11.1,2.5,22,6.1,22,19.1c0,16-15,21.2-28.6,21.2c-15.1,0-27.8-6.1-28.5-22.8H621.4z"/>
		</g>
		<g>
			<g>
				<path class="st0" d="M189.7,138.1v-4.7h67.9v4.7h-31.3v83.9h-5.5v-83.9H189.7z"/>
				<path class="st0" d="M253.3,190.8c-0.2,15,7.7,28.7,23.5,28.7c12,0,20.6-7.2,22.8-19h4.7c-2.5,14.9-12.4,23.1-27.6,23.1
					c-18.6,0-28.4-14.7-28.2-32.3c-0.2-17.5,8.9-34.5,28.2-34.5c20,0,28.9,15.8,28.1,34H253.3z M300.1,186.7
					c-0.2-13.4-8.7-25.8-23.3-25.8c-14.2,0-22.5,13.2-23.5,25.8H300.1z"/>
				<path class="st0" d="M320.6,172.4h0.4c2.5-8.3,12.9-15,24.5-14.5v4.7c-5-0.6-11.9,0.6-17.6,6.2c-4.7,4.8-6.7,8.8-7.2,18.4v34.9
					h-4.7v-63.8h4.7V172.4z"/>
				<path class="st0" d="M350.5,158.2h4.7v13h0.2c2-8.1,10.4-14.5,20-14.5c12.2,0,17.9,7,19.2,13.5h0.2c3.7-8.7,9.9-13.5,20.2-13.5
					c11.5,0,20,6.7,20,21.7v43.6h-4.7v-43.7c0-16.3-11.5-17.5-15.3-17.5c-11.5,0-20,8.2-20,23.5v37.7h-4.7v-43.7
					c0-16-10.9-17.5-15-17.5c-9.1,0-20.2,7.1-20.2,23.5v37.7h-4.7V158.2z"/>
				<path class="st0" d="M450.3,146.2v-12.8h4.7v12.8H450.3z M450.3,222.1v-63.8h4.7v63.8H450.3z"/>
				<path class="st0" d="M470.1,158.2h4.7v13.7h0.2c3.2-9.6,12.9-15.1,22.8-15.1c22.5,0,22.7,18,22.7,25.8v39.5h-4.7v-40.4
					c0-6.6-0.7-20.9-18.1-20.9c-14.3,0-23,11.1-23,26.7v34.5h-4.7V158.2z"/>
				<path class="st0" d="M581.6,210.3c0,3.7,0,7.7,4.2,7.7c0.9,0,2-0.1,3.5-0.4v4c-1.4,0.2-2.6,0.5-3.8,0.5c-7.5,0-8.6-4.1-8.6-9.3
					v-3.4h-0.2c-3,7.6-11.5,14.2-23.7,14.2c-12,0-21.4-4.6-21.4-18c0-14.9,12.9-18,23.5-18.9c21.1-1.5,22-2.9,22-13.3
					c0-2.9-3.2-12.5-17.8-12.5c-11.4,0-19,6-19.6,17h-4.7c0.6-14,9.3-21.1,24.3-21.1c11.2,0,22.3,3.5,22.3,16.6V210.3z M576.8,185.8
					c-3.7,4.2-13.9,3.7-23.1,5c-11.2,1.2-17.5,5.2-17.5,14.8c0,7.7,5.6,13.9,16.8,13.9c21.5,0,23.8-18.4,23.8-21.7V185.8z"/>
				<path class="st0" d="M602.4,133.4v88.7h-4.7v-88.7H602.4z"/>
				<path class="st0" d="M619.7,200.8c0.7,11.8,9.6,18.6,21.1,18.6c8.3,0,20.2-2.5,20.2-13.5c0-10.8-10.9-12.4-21.9-14.7
					c-11-2.2-22-5.1-22-18.1c0-12.7,12.3-16.4,23.1-16.4c13.5,0,23.6,5.8,23.6,20.4h-4.7c-0.1-11.5-8.2-16.3-18.9-16.3
					c-8.7,0-18.4,3.2-18.4,12.3c0,10.2,10.9,11.8,21.2,14c12.7,2.4,22.6,5.3,22.6,18.7c0,13.8-13.8,17.6-25,17.6
					c-14.5,0-25.5-7.8-25.8-22.7H619.7z"/>
			</g>
			<rect x="167.7" y="133.4" class="st0" width="267.5" height="4.7"/>
			<rect x="470.2" y="133.4" class="st0" width="112" height="4.7"/>
			<rect x="617.8" y="133.4" class="st0" width="47.3" height="4.7"/>
		</g>
	</g>
	<path class="st0" d="M188.6,108c0,0-34.3-11.5-58-23.6c-6.7-3.4-21.7-10.1-27.6-12.7v151.7h38l29.2-59.4l19.2-42.5
		C189.3,121.7,194.6,111.6,188.6,108z"/>
	<path class="st0" d="M99,71.3c-5,2.2-21.5,9.5-28.5,13.1c-23.8,12.1-58.8,23.9-58.8,23.9c-4.9,3.6,0,13.4,0,13.4l19.2,42.5
		l29.2,59.4H99V71.3z"/>
	<path class="st0" d="M46.1,93.2v-3.3c0-6.7,5.4-12.2,12.2-12.2h10.2v-9.9c0-4,3.2-7.2,7.2-7.2h49.9c4,0,7.2,3.2,7.2,7.2v9.9h10.4
		c6.7,0,12.2,5.5,12.2,12.2v2.6c6.1,2.5,12.1,4.9,17.4,6.8V76.7c0-7.3-5-13.3-11.3-13.3H151v-5.9c0-7.3-5-13.3-11.3-13.3h-20.4V19.8
		c0-2-1.6-3.6-3.6-3.6H85.6c-2,0-3.6,1.6-3.6,3.6v24.4H61.3c-6.2,0-11.3,5.9-11.3,13.3v5.9H40c-6.2,0-11.3,5.9-11.3,13.3V100
		C33.9,98.1,39.9,95.8,46.1,93.2z"/>
</g>
</svg>
